<?xml version="1.0" encoding="UTF-8" ?>
<!DOCTYPE svg PUBLIC "-//W3C//DTD SVG 1.1//EN" "http://www.w3.org/Graphics/SVG/1.1/DTD/svg11.dtd">
<svg width="369pt" height="331pt" viewBox="0 0 369 331" version="1.1" xmlns="http://www.w3.org/2000/svg">
<g id="#ffffffff">
<path fill="#ffffff" opacity="1.00" d=" M 0.00 0.00 L 187.61 0.00 C 190.25 2.84 192.98 5.61 196.04 8.00 C 253.66 60.49 311.42 112.80 369.00 165.33 L 369.00 166.68 C 365.99 168.73 363.23 171.09 360.74 173.74 C 302.99 226.15 245.28 278.60 187.52 331.00 L 0.00 331.00 L 0.00 330.43 C 2.43 329.16 4.42 327.27 6.26 325.26 C 60.31 276.32 114.24 227.24 168.25 178.25 C 172.44 173.57 178.26 170.47 181.82 165.24 C 178.86 162.87 175.84 160.54 173.26 157.75 C 118.54 108.13 63.98 58.35 9.26 8.74 C 6.44 5.79 3.34 3.13 0.00 0.78 L 0.00 0.00 Z" />
</g>
<g id="#7ed957ff">
</g>
</svg>
