<?xml version="1.0" encoding="UTF-8" ?>
<!DOCTYPE svg PUBLIC "-//W3C//DTD SVG 1.1//EN" "http://www.w3.org/Graphics/SVG/1.1/DTD/svg11.dtd">
<svg width="970pt" height="579pt" viewBox="0 0 970 579" version="1.1" xmlns="http://www.w3.org/2000/svg">
<g id="#ffffffff">
<path fill="#000000" opacity="1.00" d=" M 89.60 55.26 C 208.06 54.65 326.53 55.17 445.00 55.00 C 593.08 55.09 741.16 54.82 889.23 55.13 C 876.53 66.62 862.31 76.21 849.09 87.07 C 751.02 163.32 653.11 239.79 555.08 316.09 C 525.93 339.30 484.03 343.59 449.67 330.37 C 430.55 323.63 416.01 308.79 400.01 296.99 C 296.46 216.51 193.15 135.73 89.60 55.26 Z" />
<path fill="#000000" opacity="1.00" d=" M 57.09 72.76 C 129.85 128.61 201.75 185.57 274.31 241.68 C 295.45 258.53 317.15 274.67 338.20 291.64 C 281.67 335.99 224.92 380.07 168.27 424.28 C 131.13 452.85 94.65 482.28 57.22 510.46 C 56.76 364.57 57.03 218.66 57.09 72.76 Z" />
<path fill="#000000" opacity="1.00" d=" M 831.30 143.32 C 861.79 119.87 891.69 95.62 922.55 72.67 C 923.58 138.44 922.71 204.23 923.00 270.00 C 922.83 350.18 923.34 430.37 922.75 510.55 C 893.17 488.89 864.86 465.54 835.70 443.32 C 770.86 392.74 705.88 342.34 641.23 291.53 C 704.52 242.04 768.02 192.81 831.30 143.32 Z" />
<path fill="#000000" opacity="1.00" d=" M 89.88 527.95 C 181.77 456.23 273.56 384.35 365.77 313.04 C 387.88 329.08 407.58 349.10 433.07 359.89 C 475.25 377.27 526.24 374.76 565.04 350.06 C 582.03 338.75 597.14 324.90 613.69 312.98 C 701.55 381.21 789.25 449.64 876.97 518.05 C 881.28 521.32 885.39 524.82 889.48 528.40 C 866.10 527.79 842.71 527.79 819.33 528.30 C 753.22 527.75 687.09 527.96 620.97 528.14 C 443.94 527.81 266.91 528.33 89.88 527.95 Z" />
</g>
</svg>
