<?xml version="1.0" encoding="UTF-8" ?>
<!DOCTYPE svg PUBLIC "-//W3C//DTD SVG 1.1//EN" "http://www.w3.org/Graphics/SVG/1.1/DTD/svg11.dtd">
<svg width="564pt" height="742pt" viewBox="0 0 564 742" version="1.1" xmlns="http://www.w3.org/2000/svg">
<g id="#ffffffff">
<path fill="#000000" opacity="1.00" d=" M 48.39 46.52 C 63.23 45.32 78.13 46.14 93.00 45.99 C 198.01 45.94 303.01 46.14 408.02 45.88 C 413.13 45.63 418.58 46.05 422.85 49.21 C 430.78 55.17 437.12 62.91 444.25 69.75 C 467.14 92.19 489.47 115.20 512.33 137.68 C 516.08 141.61 520.81 145.63 521.40 151.42 C 523.03 173.24 521.95 195.14 521.99 217.00 C 522.01 370.35 521.99 523.70 522.01 677.05 C 521.91 686.89 513.10 696.32 503.01 695.81 C 356.34 696.34 209.66 695.73 62.99 696.10 C 56.40 695.35 48.65 697.52 43.04 692.95 C 35.42 688.70 33.28 679.10 33.98 671.03 C 34.06 469.34 33.91 267.64 34.06 65.95 C 34.18 57.48 39.76 48.40 48.39 46.52 M 420.21 74.51 C 419.76 99.00 420.08 123.50 420.00 148.00 C 444.31 147.85 468.63 148.44 492.94 147.55 C 486.49 138.94 478.20 131.94 470.75 124.25 C 453.81 107.76 437.79 90.32 420.21 74.51 M 188.01 185.01 C 188.00 191.33 187.99 197.65 187.98 203.99 C 181.65 203.99 175.32 204.00 169.00 204.02 C 169.00 238.34 168.99 272.66 169.00 306.99 C 175.33 306.99 181.65 307.00 187.99 307.02 C 187.99 313.34 188.00 319.66 188.02 326.00 C 209.34 326.00 230.66 326.01 251.98 325.99 C 252.00 319.67 252.01 313.34 252.03 307.03 C 258.68 307.01 265.34 306.99 272.00 306.98 C 272.00 298.99 272.00 290.99 272.00 283.00 C 263.67 282.99 255.35 282.99 247.03 283.00 C 247.01 289.66 246.99 296.33 246.98 303.00 C 228.98 303.00 210.99 303.01 193.00 303.00 C 193.00 271.33 192.99 239.67 193.00 208.00 C 210.99 208.00 228.98 207.99 246.97 208.00 C 246.99 214.67 247.01 221.33 247.03 228.00 C 255.35 228.00 263.67 228.00 272.00 228.00 C 272.00 220.01 272.00 212.01 272.00 204.03 C 265.33 204.01 258.67 203.99 252.02 203.98 C 252.00 197.65 251.99 191.32 251.98 185.00 C 230.66 185.00 209.34 184.98 188.01 185.01 M 290.00 185.00 C 289.99 205.99 289.98 226.99 290.01 247.99 C 296.33 247.99 302.66 248.00 308.99 248.02 C 309.00 261.00 309.00 273.99 309.01 286.97 C 315.67 286.98 322.33 287.00 328.99 287.02 C 329.00 300.01 328.99 313.00 329.01 326.00 C 337.00 325.99 344.99 326.00 352.99 326.00 C 353.00 313.01 352.99 300.02 353.01 287.03 C 359.67 287.01 366.33 286.99 372.99 286.98 C 373.00 273.99 372.99 261.01 373.01 248.03 C 379.67 248.01 386.33 247.99 393.00 247.98 C 393.01 226.99 393.01 205.99 392.99 185.00 C 384.65 185.00 376.32 185.00 367.99 185.00 C 368.05 204.66 367.94 224.32 368.01 243.99 C 361.67 243.99 355.33 244.00 349.01 244.02 C 348.99 257.01 349.00 270.01 348.99 283.00 C 345.24 283.00 337.75 283.00 334.01 283.00 C 333.99 270.01 334.00 257.02 333.99 244.03 C 327.32 244.01 320.66 243.99 314.00 243.98 C 314.05 224.32 313.94 204.66 314.01 185.00 C 306.00 185.00 298.00 184.99 290.00 185.00 M 115.00 391.00 C 115.00 397.99 115.00 404.99 115.00 412.00 C 122.00 411.99 129.00 411.99 136.00 412.00 C 135.99 404.99 135.99 397.99 136.00 391.00 C 129.00 391.00 122.00 391.00 115.00 391.00 M 156.00 391.00 C 156.00 397.99 156.00 404.99 156.00 412.00 C 210.34 411.88 264.66 411.86 319.00 412.00 C 318.99 404.99 319.00 397.99 319.00 391.00 C 264.67 391.00 210.33 391.00 156.00 391.00 M 115.00 452.00 C 115.00 458.99 115.00 465.99 115.00 473.00 C 122.00 472.99 129.00 472.99 136.00 473.00 C 135.99 465.99 135.99 458.99 136.00 452.00 C 129.00 452.00 122.00 452.00 115.00 452.00 M 156.00 452.00 C 156.00 458.99 156.00 465.99 156.00 473.00 C 210.33 473.00 264.67 473.00 319.00 473.00 C 318.99 465.99 319.00 458.99 319.00 452.00 C 264.67 452.00 210.33 452.00 156.00 452.00 M 115.00 513.00 C 115.00 519.99 115.00 526.99 115.00 534.00 C 122.00 533.99 129.00 533.99 136.00 534.00 C 135.99 526.99 135.99 519.99 136.00 513.00 C 129.00 513.00 122.00 513.00 115.00 513.00 M 156.00 513.00 C 156.00 519.99 156.00 526.99 156.00 534.00 C 251.00 534.00 346.00 534.00 441.00 534.00 C 440.99 526.99 440.99 519.99 441.00 513.00 C 346.00 513.00 251.00 513.00 156.00 513.00 M 115.00 574.00 C 115.00 580.99 115.00 587.99 115.00 595.00 C 122.00 594.99 129.00 594.99 136.00 595.00 C 135.99 587.99 135.99 580.99 136.00 574.00 C 129.00 574.00 122.00 574.00 115.00 574.00 M 156.00 574.00 C 156.00 580.99 156.00 587.99 156.00 595.00 C 251.00 595.00 346.00 595.00 441.00 595.00 C 440.99 587.99 440.99 580.99 441.00 574.00 C 346.00 574.00 251.00 574.00 156.00 574.00 Z" />
</g>
</svg>
