<?xml version="1.0" encoding="UTF-8" ?>
<!DOCTYPE svg PUBLIC "-//W3C//DTD SVG 1.1//EN" "http://www.w3.org/Graphics/SVG/1.1/DTD/svg11.dtd">
<svg width="512pt" height="512pt" viewBox="0 0 512 512" version="1.1" xmlns="http://www.w3.org/2000/svg">
<g id="#000000ff">
<path fill="#000000" opacity="1.00" d=" M 238.47 19.45 C 247.93 10.49 264.04 10.52 273.52 19.43 C 350.14 89.17 426.70 158.97 503.27 228.77 C 508.22 233.09 511.03 239.35 512.00 245.77 L 512.00 250.26 C 511.05 262.67 500.60 273.59 488.07 274.41 C 475.06 274.71 462.04 274.43 449.03 274.54 C 449.01 344.37 449.04 414.19 449.01 484.02 C 449.33 492.14 442.06 499.53 433.93 499.31 C 391.96 499.35 350.00 499.35 308.04 499.31 C 299.96 499.48 292.70 492.13 293.01 484.04 C 292.98 441.68 293.03 399.31 292.99 356.94 C 268.33 356.93 243.67 356.93 219.01 356.94 C 218.98 399.32 219.03 441.69 218.99 484.06 C 219.28 492.15 212.03 499.51 203.93 499.31 C 161.97 499.35 120.01 499.35 78.05 499.31 C 69.94 499.50 62.64 492.12 62.98 484.00 C 62.96 414.18 62.99 344.36 62.97 274.54 C 50.29 274.48 37.60 274.63 24.92 274.48 C 12.08 274.10 1.02 263.09 0.00 250.38 L 0.00 245.90 C 0.89 239.41 3.76 233.10 8.75 228.75 C 85.34 159.00 161.88 89.20 238.47 19.45 Z" />
<path fill="#000000" opacity="1.00" d=" M 344.01 42.74 C 377.66 42.73 411.31 42.73 444.95 42.74 C 453.11 42.45 460.44 49.86 460.14 58.00 C 460.15 88.10 460.17 118.20 460.13 148.30 C 421.39 113.15 382.71 77.93 344.01 42.74 Z" />
</g>
</svg>
